<svg id="_490_cpu_outline" data-name="#490_cpu_outline" xmlns="http://www.w3.org/2000/svg" viewBox="0 0 400 300" width="406" height="306" class="illustration styles_illustrationTablet__1DWOa"><rect x="150.07" y="61.22" width="99.87" height="177.55" rx="5.63" fill="#9268fc"></rect><path d="M244.31,239.78H155.69a6.64,6.64,0,0,1-6.62-6.63V66.85a6.64,6.64,0,0,1,6.62-6.63h88.62a6.64,6.64,0,0,1,6.62,6.63v166.3A6.64,6.64,0,0,1,244.31,239.78ZM155.69,62.22a4.63,4.63,0,0,0-4.62,4.63v166.3a4.63,4.63,0,0,0,4.62,4.63h88.62a4.63,4.63,0,0,0,4.62-4.63V66.85a4.63,4.63,0,0,0-4.62-4.63Z" fill="#093f68"></path><circle cx="200" cy="193.46" r="20.22" fill="#fff"></circle><path d="M200,214.68a21.22,21.22,0,1,1,21.22-21.22A21.24,21.24,0,0,1,200,214.68Zm0-40.43a19.22,19.22,0,1,0,19.22,19.21A19.24,19.24,0,0,0,200,174.25Z" fill="#093f68"></path><circle cx="200" cy="193.46" r="15.34" fill="#9268fc"></circle><path d="M200,209.8a16.34,16.34,0,1,1,16.34-16.34A16.36,16.36,0,0,1,200,209.8Zm0-30.67a14.34,14.34,0,1,0,14.34,14.33A14.35,14.35,0,0,0,200,179.13Z" fill="#093f68"></path><path d="M200,184a1,1,0,0,1-1-1v-4.88a1,1,0,0,1,2,0V183A1,1,0,0,1,200,184Z" fill="#093f68"></path><path d="M176.49,227h47a8.3,8.3,0,0,1,8.3,8.3v3.51a0,0,0,0,1,0,0H168.18a0,0,0,0,1,0,0v-3.51A8.3,8.3,0,0,1,176.49,227Z" fill="#093f68"></path><path d="M231.82,239.78H168.18a1,1,0,0,1-1-1v-3.51a9.32,9.32,0,0,1,9.31-9.3h47a9.32,9.32,0,0,1,9.31,9.3v3.51A1,1,0,0,1,231.82,239.78Zm-62.64-2h61.64v-2.51a7.31,7.31,0,0,0-7.31-7.3h-47a7.31,7.31,0,0,0-7.31,7.3Z" fill="#093f68"></path><rect x="162.31" y="74.18" width="75.37" height="19.5" fill="#093f68"></rect><path d="M237.69,94.68H162.31a1,1,0,0,1-1-1V74.17a1,1,0,0,1,1-1h75.38a1,1,0,0,1,1,1V93.68A1,1,0,0,1,237.69,94.68Zm-74.38-2h73.38V75.17H163.31Z" fill="#093f68"></path><path d="M237.69,114.91a1,1,0,0,1-1-1V111H163.31v2.94a1,1,0,1,1-2,0V110a1,1,0,0,1,1-1h75.38a1,1,0,0,1,1,1v3.94A1,1,0,0,1,237.69,114.91Z" fill="#093f68"></path><path d="M237.69,129.92a1,1,0,0,1-1-1V126H163.31v2.94a1,1,0,1,1-2,0V125a1,1,0,0,1,1-1h75.38a1,1,0,0,1,1,1v3.94A1,1,0,0,1,237.69,129.92Z" fill="#093f68"></path><path d="M237.69,144.94a1,1,0,0,1-1-1V141H163.31v2.94a1,1,0,0,1-2,0V140a1,1,0,0,1,1-1h75.38a1,1,0,0,1,1,1v3.94A1,1,0,0,1,237.69,144.94Z" fill="#093f68"></path><path d="M237.69,160a1,1,0,0,1-1-1V156H163.31V159a1,1,0,0,1-2,0V155a1,1,0,0,1,1-1h75.38a1,1,0,0,1,1,1V159A1,1,0,0,1,237.69,160Z" fill="#093f68"></path><rect x="164.76" y="77.08" width="70.48" height="9.63" fill="#9268fc"></rect><path d="M235.24,87.7H164.76a1,1,0,0,1-1-1V77.08a1,1,0,0,1,1-1h70.48a1,1,0,0,1,1,1V86.7A1,1,0,0,1,235.24,87.7Zm-69.48-2h68.48V78.08H165.76Z" fill="#093f68"></path><path d="M174.2,91.31h-1.54a1,1,0,0,1,0-2h1.54a1,1,0,0,1,0,2Z" fill="#fff"></path><path d="M169.14,91.31h-1.55a1,1,0,1,1,0-2h1.55a1,1,0,0,1,0,2Z" fill="#fff"></path><circle cx="170.9" cy="186.19" r="1.74" fill="#093f68"></circle><circle cx="170.9" cy="193.46" r="1.74" fill="#093f68"></circle><circle cx="170.9" cy="200.74" r="1.74" fill="#093f68"></circle></svg>